<svg width="37" height="36" viewBox="0 0 37 36" fill="none" xmlns="http://www.w3.org/2000/svg">
<path d="M17.5489 0.92705C17.8483 0.00573969 19.1517 0.00574017 19.4511 0.927051L23.1025 12.1652C23.2364 12.5772 23.6204 12.8561 24.0536 12.8561H35.87C36.8388 12.8561 37.2415 14.0958 36.4578 14.6652L26.8981 21.6107C26.5476 21.8653 26.401 22.3167 26.5348 22.7287L30.1863 33.9668C30.4857 34.8881 29.4312 35.6543 28.6475 35.0849L19.0878 28.1393C18.7373 27.8847 18.2627 27.8847 17.9122 28.1393L8.35252 35.0849C7.5688 35.6543 6.51432 34.8881 6.81367 33.9668L10.4652 22.7287C10.599 22.3167 10.4524 21.8653 10.1019 21.6107L0.542182 14.6652C-0.241532 14.0957 0.161244 12.8561 1.12997 12.8561H12.9464C13.3796 12.8561 13.7636 12.5772 13.8975 12.1652L17.5489 0.92705Z" fill="#FFD15C"/>
</svg>
